<svg width="129" height="80" viewBox="0 0 129 80" fill="none" xmlns="http://www.w3.org/2000/svg">
<path d="M20.1724 39.7147C22.0435 39.8108 23.9105 39.4585 25.6167 38.6876C27.2212 37.9458 28.0236 36.3481 28.0236 33.8944C28.0236 31.5549 27.2212 29.9572 25.6167 29.2154C23.9163 28.4168 22.0518 28.0259 20.1724 28.0742L4.1835 28.0171V19.8003H19.9432C21.8134 19.8842 23.6776 19.5325 25.3874 18.7732C26.992 18.0884 27.7943 16.4907 27.7943 14.0942C27.7943 11.6976 27.0493 10.0428 25.3874 9.35805C23.6656 8.63195 21.8131 8.26303 19.9432 8.27389L0.401181 8.21681V0H23.4962C26.6918 0.0609886 29.8599 0.599568 32.8948 1.59771C35.7028 2.56776 37.7086 4.90728 38.7401 8.61627C39.7717 12.0399 39.7144 14.9501 38.5109 17.3466C37.3074 19.7432 35.4736 21.9116 32.8374 23.9658C34.1907 24.7628 35.4416 25.7209 36.5624 26.8188C37.6762 27.9637 38.4669 29.3809 38.8548 30.9272C39.0951 31.6289 39.249 32.357 39.3132 33.0956C39.418 33.8327 39.4373 34.5795 39.3705 35.321C39.3705 35.9487 39.3132 36.5763 39.2559 37.204C39.1986 37.8317 39.0267 38.4023 38.9121 39.0299C38.0524 42.3395 36.2186 44.679 33.4105 45.9915C30.5942 47.2981 27.5201 47.961 24.4132 47.9315H0.343872V39.7147H20.1724Z" fill="#52525A"/>
<path d="M67.2795 39.7147C69.0909 39.8305 70.8985 39.435 72.4942 38.5735C73.8699 37.7746 74.5577 36.1769 74.5577 33.7803C74.5577 31.3837 73.8699 29.786 72.4942 28.9871C70.8763 28.1254 69.0557 27.7116 67.222 27.7889L43.8979 27.7318V0H83.8988V8.21681H54.5573V19.515H71.7495C76.277 19.5721 79.8299 20.7703 82.4088 23.2239C84.9877 25.6776 86.3059 29.1583 86.3059 33.7803C86.2485 39.087 84.6435 42.7389 81.4917 44.7931C78.3399 46.8474 74.3284 47.8745 69.4573 47.8745H43.8406V39.6576H67.2795V39.7147Z" fill="#52525A"/>
<path d="M102.066 8.38801L104.472 3.59488C99.188 1.20003 93.4274 0.0294491 87.6235 0.171195L87.5092 9.70045V20.7703L97.4232 17.4037L100.117 12.2111L102.066 8.38801Z" fill="#52525A"/>
<path d="M2.00578 56.3768H5.61616V52.6105H7.56466V61.9686H5.61616V58.0313H2.00578V61.9686H0V52.6105H1.94847V56.3768H2.00578Z" fill="#52525A"/>
<path d="M11.7481 54.8357C11.3697 55.2865 11.1485 55.847 11.1178 56.4335H16.6193V58.0886H11.1178C11.1276 58.4146 11.166 58.7389 11.2324 59.0584C11.316 59.3757 11.473 59.6686 11.6909 59.9146C11.8658 60.1351 12.1066 60.2951 12.3786 60.3708C12.6625 60.4184 12.9504 60.4373 13.2381 60.4281H16.6193V62.0827H13.2954C12.7749 62.0821 12.2561 62.0249 11.7481 61.9113C11.2395 61.8011 10.7668 61.5654 10.3728 61.227C9.86258 60.834 9.48311 60.2967 9.28392 59.6859C9.0592 59.0832 8.94283 58.4459 8.94006 57.8032V57.0043C9.0547 55.5205 9.45585 54.4367 10.1436 53.7518C10.8312 53.067 11.9201 52.7246 13.3528 52.7246H16.6193V54.3794H13.3528C13.0684 54.3135 12.7719 54.3211 12.4911 54.4011C12.2104 54.4805 11.9547 54.6303 11.7481 54.8357Z" fill="#52525A"/>
<path d="M23.1523 52.6105L27.1639 61.9686H24.9862L24.1266 59.7432H20.0577L19.1981 61.9686H17.135L21.0892 52.6105H23.1523ZM20.6881 58.0886H23.4962L22.0635 54.4935L20.6881 58.0886Z" fill="#52525A"/>
<path d="M29.9147 61.8546C29.3541 61.7373 28.8494 61.4362 28.482 60.9984C28.1127 60.6492 27.8707 60.1876 27.7942 59.6859C27.6806 59.1995 27.6229 58.7022 27.6223 58.2027V52.6105H29.5708V57.7459C29.5511 58.4232 29.648 59.0989 29.8573 59.7432C30.0292 60.1995 30.6597 60.4281 31.6912 60.4281H34.0408V61.9686H31.5193C30.9827 61.9611 30.4469 61.9227 29.9147 61.8546Z" fill="#52525A"/>
<path d="M34.1555 54.2654V52.6105H42.2932V54.2654H39.2559V61.9686H37.1929V54.2654H34.1555Z" fill="#52525A"/>
<path d="M45.2159 56.3768H48.8263V52.6105H50.7748V61.9686H48.8263V58.0313H45.2159V61.9686H43.2675V52.6105H45.2159V56.3768Z" fill="#52525A"/>
<path d="M59.8294 55.1784C59.5178 55.8584 59.3611 56.5989 59.3709 57.3465V58.2027C59.3725 58.5146 59.4305 58.8238 59.5427 59.1157C59.6387 59.4108 59.7948 59.6827 60.0013 59.9146C60.1975 60.1378 60.4576 60.2973 60.7465 60.3708C61.03 60.4184 61.3184 60.4373 61.6062 60.4281H64.9873V62.0827H61.6631C61.1428 62.0821 60.624 62.0249 60.1162 61.9113C59.6072 61.8011 59.1346 61.5654 58.7405 61.227C58.2305 60.834 57.8511 60.2967 57.6516 59.6859C57.4272 59.0832 57.3107 58.4459 57.308 57.8032V57.0043C57.4223 55.5205 57.8234 54.4367 58.5113 53.7518C59.1991 53.067 60.288 52.7246 61.7205 52.7246H64.9873V54.3222H61.7205C60.7465 54.2081 60.1162 54.5508 59.8294 55.1784Z" fill="#52525A"/>
<path d="M68.4258 61.8546C67.8648 61.7373 67.3602 61.4362 66.9927 60.9984C66.6236 60.6492 66.3818 60.1876 66.3054 59.6859C66.1916 59.1995 66.1336 58.7022 66.1331 58.2027V52.6105H68.0816V57.7459C68.0621 58.4232 68.1591 59.0989 68.3683 59.7432C68.5402 60.1995 69.1705 60.4281 70.202 60.4281H72.5516V61.9686H70.0302C69.4936 61.9589 68.958 61.9211 68.4258 61.8546Z" fill="#52525A"/>
<path d="M75.5891 58.2027C75.5365 58.8195 75.6769 59.4368 75.9902 59.9713C76.2769 60.3708 76.8498 60.5422 77.7095 60.5422C78.5691 60.5422 79.142 60.3708 79.4287 59.9713C79.742 59.4368 79.8819 58.8195 79.8298 58.2027V52.6105H81.7784V58.9443C81.7686 59.2703 81.7301 59.5951 81.6635 59.9146C81.5898 60.2416 81.4537 60.5513 81.2624 60.8276C80.9968 61.2178 80.6168 61.5168 80.1735 61.6832C79.7301 61.8508 79.2688 61.9654 78.7984 62.0259C78.6266 62.0259 78.4542 62.0827 78.2255 62.0827H77.1935C77.02 62.0919 76.8455 62.073 76.678 62.0259C76.2075 61.9654 75.7457 61.8508 75.3024 61.6832C74.8595 61.5168 74.479 61.2178 74.2135 60.8276C73.9999 60.5649 73.8611 60.2492 73.8124 59.9146C73.7462 59.5951 73.7078 59.2703 73.698 58.9443V52.6105H75.6465V58.2027H75.5891Z" fill="#52525A"/>
<path d="M83.7269 61.9686V52.6105H88.9991C89.6235 52.6363 90.2414 52.7516 90.8328 52.9529C91.1227 53.0765 91.3759 53.273 91.5667 53.523C91.7574 53.7731 91.8799 54.0681 91.9217 54.3795C92.094 54.9449 92.0528 55.5535 91.8073 56.0913C91.5293 56.5973 91.1119 57.013 90.6035 57.2897C91.1455 57.5113 91.5916 57.9151 91.8642 58.4308C92.0843 58.9946 92.1244 59.6124 91.9791 60.1995C91.9287 60.5081 91.8035 60.7995 91.6133 61.0481C91.4236 61.2973 91.1753 61.4957 90.8902 61.6265C90.326 61.8546 89.7227 61.9708 89.1135 61.9686H83.7269ZM85.6755 56.4335H88.5406C88.8631 56.4611 89.1861 56.3811 89.4577 56.2054C89.6777 55.9741 89.8002 55.6681 89.8002 55.3497C89.8002 55.0308 89.6777 54.7249 89.4577 54.4935C89.1829 54.3254 88.8625 54.2454 88.5406 54.2654H85.6755V56.4335ZM89.5146 60.0854C89.6371 59.9811 89.7319 59.8486 89.7921 59.6995C89.8517 59.5503 89.8745 59.3892 89.8588 59.2297C89.8804 59.0697 89.8604 58.9065 89.8002 58.7568C89.7395 58.6065 89.6414 58.4746 89.5146 58.3735C89.2403 58.2054 88.92 58.1254 88.598 58.1454H85.6755V60.3708H88.598C88.9227 60.3546 89.2382 60.2562 89.5146 60.0854Z" fill="#52525A"/>
<path d="M96.6785 54.2654C96.2969 54.2643 95.9213 54.3627 95.5896 54.5508C95.4346 54.6578 95.3105 54.8043 95.2297 54.9746C95.1495 55.1449 95.1153 55.333 95.131 55.5205C95.118 55.6778 95.1489 55.8351 95.2194 55.9757C95.2904 56.1168 95.3983 56.2357 95.5321 56.3195C95.7858 56.4881 96.0877 56.5681 96.3918 56.5476H99.6011C99.9149 56.5492 100.225 56.607 100.518 56.7189C100.824 56.7908 101.102 56.9497 101.32 57.1757C101.536 57.3551 101.695 57.593 101.779 57.86C101.891 58.1319 101.949 58.4227 101.951 58.7162V59.1724C101.992 59.5897 101.931 60.0113 101.771 60.3989C101.611 60.787 101.358 61.1303 101.034 61.3978C100.308 61.827 99.4688 62.0259 98.627 61.9686H93.3543V60.314H98.2829C98.678 60.3324 99.0715 60.254 99.4292 60.0854C99.7729 59.9146 99.8878 59.6292 99.8303 59.0584C99.7729 58.6589 99.6585 58.3735 99.3718 58.3168C99.0807 58.2 98.7691 58.1416 98.4547 58.1454H96.1056C95.3002 58.1968 94.499 57.9973 93.8129 57.5751C93.2399 57.1757 92.9532 56.4908 92.9532 55.4065C92.9115 54.9892 92.9733 54.5681 93.1332 54.18C93.2931 53.792 93.5462 53.449 93.8703 53.1812C94.5961 52.7523 95.4357 52.5533 96.2774 52.6105H101.435V54.2654H96.6785Z" fill="#52525A"/>
<mask id="mask0_30_438" style="mask-type:luminance" maskUnits="userSpaceOnUse" x="47" y="0" width="81" height="79">
<path d="M87.5092 78.973C65.2166 78.973 47.0498 61.2838 47.0498 39.5435C47.0498 17.8031 65.2166 0.114105 87.5092 0.114105C109.802 0.114105 127.969 17.8031 127.969 39.5435C127.969 61.2838 109.859 78.973 87.5092 78.973ZM87.5092 10.214C70.7755 10.214 57.1362 23.3951 57.1362 39.5435C57.1362 55.6919 70.7755 68.873 87.5092 68.873C104.243 68.873 117.882 55.6919 117.882 39.5435C117.882 23.3951 104.243 10.214 87.5092 10.214Z" fill="white"/>
</mask>
<g mask="url(#mask0_30_438)">
<path d="M102.868 15.863C106.593 18.1455 109.114 20.0856 111.579 23.6234L122.009 16.5478C118.621 11.574 114.156 7.42063 108.942 4.39371L102.868 15.863Z" fill="#70C5C7"/>
<path d="M113.756 26.8759C115.647 30.699 116.22 34.0656 116.335 38.6305L129 38.5734C128.779 32.047 127.095 25.6523 124.071 19.8573L113.756 26.8759Z" fill="#5CBDBC"/>
<path d="M128.771 42.3395H116.908C116.392 46.6762 115.59 50.6134 113.47 54.2081L122.983 59.9146C126.222 54.567 128.201 48.5581 128.771 42.3395Z" fill="#41AAA8"/>
<path d="M111.292 57.2897C108.984 60.1978 106.122 62.6221 102.868 64.4221L108.083 73.9513C113.155 71.194 117.603 67.4259 121.149 62.8816L111.292 57.2897Z" fill="#2D9994"/>
<path d="M99.1999 65.2784C95.9906 66.5335 92.4377 65.3351 89.171 67.96C88.8273 68.2454 88.3113 67.96 87.8528 67.96V79.7719H89.8588C94.9592 79.6578 100.174 77.6032 104.644 75.7773L99.1999 65.2784Z" fill="#1E847C"/>
<path d="M84.0132 67.96C80.3459 67.3324 76.3913 67.047 73.2395 65.2211L66.4773 75.093C71.0617 77.7746 78.5117 79.3151 84.0132 80V67.96Z" fill="#0E6C63"/>
</g>
</svg>
