<svg width="32" height="32" viewBox="0 0 32 32" fill="none" xmlns="http://www.w3.org/2000/svg">
<path d="M3.33337 4.00098L28.6667 4.00098" stroke="#0A0A0A" stroke-width="1.5" stroke-linecap="round" stroke-linejoin="round"/>
<path d="M6 4.00098V18.6664C6 21.7714 6.57411 22.7854 9.23669 24.383L13.256 26.7946C14.5929 27.5967 15.2614 27.9978 16 27.9978C16.7386 27.9978 17.4071 27.5967 18.744 26.7946L22.7633 24.383C25.4259 22.7854 26 21.7714 26 18.6664V4.00098" stroke="#0A0A0A" stroke-width="1.5" stroke-linecap="round" stroke-linejoin="round"/>
<path d="M16.806 10.6739L17.6272 12.33C17.7392 12.5605 18.0378 12.7817 18.2898 12.824L19.7783 13.0734C20.7302 13.2333 20.9542 13.9296 20.2683 14.6165L19.1111 15.7833C18.9151 15.9809 18.8078 16.3619 18.8684 16.6348L19.1997 18.0792C19.461 19.2224 18.8591 19.6647 17.8559 19.0672L16.4607 18.2344C16.2087 18.0839 15.7934 18.0839 15.5368 18.2344L14.1416 19.0672C13.1431 19.6647 12.5365 19.2177 12.7978 18.0792L13.1291 16.6348C13.1897 16.3619 13.0824 15.9809 12.8864 15.7833L11.7292 14.6165C11.048 13.9296 11.2673 13.2333 12.2192 13.0734L13.7077 12.824C13.955 12.7817 14.2536 12.5605 14.3656 12.33L15.1868 10.6739C15.6348 9.77535 16.3627 9.77535 16.806 10.6739Z" stroke="#0A0A0A" stroke-width="1.5" stroke-linecap="round" stroke-linejoin="round"/>
</svg>
