<svg width="28" height="28" viewBox="0 0 28 28" fill="none" xmlns="http://www.w3.org/2000/svg">
<path d="M21 2.3335V4.66683M7 2.3335V4.66683" stroke="#0A0A0A" stroke-width="1.5" stroke-linecap="round" stroke-linejoin="round"/>
<path d="M2.91663 14.2838C2.91663 9.20026 2.91663 6.6585 4.37743 5.07925C5.83824 3.5 8.18937 3.5 12.8916 3.5H15.1083C19.8106 3.5 22.1617 3.5 23.6225 5.07925C25.0833 6.6585 25.0833 9.20026 25.0833 14.2838V14.8829C25.0833 19.9664 25.0833 22.5082 23.6225 24.0874C22.1617 25.6667 19.8106 25.6667 15.1083 25.6667H12.8916C8.18937 25.6667 5.83824 25.6667 4.37743 24.0874C2.91663 22.5082 2.91663 19.9664 2.91663 14.8829V14.2838Z" stroke="#0A0A0A" stroke-width="1.5" stroke-linecap="round" stroke-linejoin="round"/>
<path d="M3.5 9.3335H24.5" stroke="#0A0A0A" stroke-width="1.5" stroke-linecap="round" stroke-linejoin="round"/>
</svg>
