<svg width="32" height="32" viewBox="0 0 32 32" fill="none" xmlns="http://www.w3.org/2000/svg">
<path d="M3.33337 16.3243C3.33337 10.5146 3.33337 7.60971 5.00287 5.80486C6.67236 4 9.35936 4 14.7334 4H17.2667C22.6407 4 25.3277 4 26.9972 5.80486C28.6667 7.60971 28.6667 10.5146 28.6667 16.3243V17.009C28.6667 22.8188 28.6667 25.7236 26.9972 27.5285C25.3277 29.3333 22.6407 29.3333 17.2667 29.3333H14.7334C9.35936 29.3333 6.67236 29.3333 5.00287 27.5285C3.33337 25.7236 3.33337 22.8188 3.33337 17.009V16.3243Z" stroke="#0A0A0A" stroke-width="1.5" stroke-linecap="round" stroke-linejoin="round"/>
<path d="M24 2.66699V5.33366M8 2.66699V5.33366" stroke="#0A0A0A" stroke-width="1.5" stroke-linecap="round" stroke-linejoin="round"/>
<path d="M15.994 17.333H16.0059M15.994 22.6663H16.0059M21.3213 17.333H21.3333M10.6666 17.333H10.6786M10.6666 22.6663H10.6786" stroke="#0A0A0A" stroke-width="2" stroke-linecap="round" stroke-linejoin="round"/>
<path d="M4.66663 10.667H27.3333" stroke="#0A0A0A" stroke-width="1.5" stroke-linecap="round" stroke-linejoin="round"/>
<path d="M4 10.667H28" stroke="#0A0A0A" stroke-width="1.5" stroke-linecap="round" stroke-linejoin="round"/>
</svg>
