<svg width="28" height="28" viewBox="0 0 28 28" fill="none" xmlns="http://www.w3.org/2000/svg">
<path d="M14 19.8335C12.0475 19.8335 10.348 21.3094 9.47064 23.4866C9.05158 24.5264 9.65291 25.6668 10.4519 25.6668H17.5481C18.3472 25.6668 18.9485 24.5264 18.5294 23.4866C17.6521 21.3094 15.9526 19.8335 14 19.8335Z" stroke="#0A0A0A" stroke-width="1.5" stroke-linecap="round"/>
<path d="M21.5833 5.8335H22.9859C24.3869 5.8335 25.0874 5.8335 25.4528 6.27375C25.8183 6.71401 25.6663 7.37482 25.3624 8.69644L24.9066 10.6787C24.221 13.6602 21.7127 15.8771 18.6666 16.3335" stroke="#0A0A0A" stroke-width="1.5" stroke-linecap="round" stroke-linejoin="round"/>
<path d="M6.41671 5.8335H5.01413C3.61312 5.8335 2.91262 5.8335 2.54716 6.27375C2.1817 6.71401 2.33366 7.37482 2.63758 8.69644L3.09343 10.6787C3.77904 13.6602 6.28735 15.8771 9.33337 16.3335" stroke="#0A0A0A" stroke-width="1.5" stroke-linecap="round" stroke-linejoin="round"/>
<path d="M14 19.8335C17.5242 19.8335 20.4925 14.3944 21.3847 6.98953C21.6314 4.94168 21.7548 3.91775 21.1013 3.12562C20.4477 2.3335 19.3926 2.3335 17.2823 2.3335H10.7176C8.60733 2.3335 7.55218 2.3335 6.89866 3.12562C6.24513 3.91775 6.36851 4.94168 6.61525 6.98953C7.50746 14.3944 10.4757 19.8335 14 19.8335Z" stroke="#0A0A0A" stroke-width="1.5" stroke-linecap="round"/>
</svg>
