<svg width="28" height="28" viewBox="0 0 28 28" fill="none" xmlns="http://www.w3.org/2000/svg">
<path d="M14 19.833C12.0475 19.833 10.348 21.3089 9.47064 23.4861C9.05158 24.5259 9.65291 25.6663 10.4519 25.6663H17.5481C18.3472 25.6663 18.9485 24.5259 18.5294 23.4861C17.6521 21.3089 15.9526 19.833 14 19.833Z" fill="#2D9994" stroke="#2D9994" stroke-width="1.5" stroke-linecap="round"/>
<path d="M21.5833 5.83301H22.9859C24.3869 5.83301 25.0874 5.83301 25.4528 6.27326C25.8183 6.71352 25.6663 7.37433 25.3624 8.69595L24.9066 10.6783C24.221 13.6597 21.7127 15.8766 18.6666 16.333" stroke="#2D9994" stroke-width="1.5" stroke-linecap="round" stroke-linejoin="round"/>
<path d="M6.41671 5.83301H5.01413C3.61312 5.83301 2.91262 5.83301 2.54716 6.27326C2.1817 6.71352 2.33366 7.37433 2.63758 8.69595L3.09343 10.6783C3.77904 13.6597 6.28735 15.8766 9.33337 16.333" stroke="#2D9994" stroke-width="1.5" stroke-linecap="round" stroke-linejoin="round"/>
<path d="M14 19.833C17.5242 19.833 20.4925 14.3939 21.3847 6.98905C21.6314 4.94119 21.7548 3.91726 21.1013 3.12513C20.4477 2.33301 19.3926 2.33301 17.2823 2.33301H10.7176C8.60733 2.33301 7.55218 2.33301 6.89866 3.12513C6.24513 3.91726 6.36851 4.94119 6.61525 6.98904C7.50746 14.3939 10.4757 19.833 14 19.833Z" fill="#2D9994" stroke="#2D9994" stroke-width="1.5" stroke-linecap="round"/>
</svg>
