<svg width="24" height="24" viewBox="0 0 24 24" fill="none" xmlns="http://www.w3.org/2000/svg">
<path d="M4.5 6.58331H6.16667H19.5" stroke="#AFAFAF" stroke-width="1.5" stroke-linecap="round" stroke-linejoin="round"/>
<path d="M17.8332 6.58331L16.9998 18.25C16.9998 18.692 16.8242 19.1159 16.5117 19.4285C16.1991 19.7411 15.7752 19.9166 15.3332 19.9166H8.6665C8.22448 19.9166 7.80055 19.7411 7.48799 19.4285C7.17543 19.1159 6.99984 18.692 6.99984 18.25L6.1665 6.58331H17.8332Z" stroke="#AFAFAF" stroke-width="1.5" stroke-linecap="round" stroke-linejoin="round"/>
<path d="M10.3335 10.7499V15.7499" stroke="#AFAFAF" stroke-width="1.5" stroke-linecap="round" stroke-linejoin="round"/>
<path d="M13.6665 10.7499V15.7499" stroke="#AFAFAF" stroke-width="1.5" stroke-linecap="round" stroke-linejoin="round"/>
<path d="M8.6665 6.58331L9.04399 5.45086C9.31622 4.63417 10.0805 4.08331 10.9414 4.08331H13.0583C13.9192 4.08331 14.6835 4.63417 14.9557 5.45086L15.3332 6.58331" stroke="#AFAFAF" stroke-width="1.5"/>
</svg>
