<svg width="44" height="44" viewBox="0 0 44 44" fill="none" xmlns="http://www.w3.org/2000/svg">
<rect width="44" height="44" rx="10" fill="white"/>
<path d="M12.0701 14.6C12.8701 11.14 18.0801 11.14 18.8701 14.6C19.3401 16.63 18.0501 18.35 16.9301 19.42C16.1101 20.2 14.8201 20.19 14.0001 19.42C12.8901 18.35 11.6001 16.63 12.0701 14.6Z" stroke="#A4A4A4" stroke-width="1.5"/>
<path d="M25.07 26.6C25.87 23.14 31.11 23.14 31.91 26.6C32.38 28.63 31.09 30.35 29.96 31.42C29.14 32.2 27.84 32.19 27.02 31.42C25.89 30.35 24.6 28.63 25.07 26.6Z" stroke="#A4A4A4" stroke-width="1.5"/>
<path d="M22.0002 15H24.6802C26.5302 15 27.3902 17.29 26.0002 18.51L18.0102 25.5C16.6202 26.71 17.4802 29 19.3202 29H22.0002" stroke="#A4A4A4" stroke-width="1.5" stroke-linecap="round" stroke-linejoin="round"/>
<path d="M15.4862 15.5H15.4978" stroke="#A4A4A4" stroke-width="2" stroke-linecap="round" stroke-linejoin="round"/>
<path d="M28.4862 27.5H28.4978" stroke="#A4A4A4" stroke-width="2" stroke-linecap="round" stroke-linejoin="round"/>
</svg>
