<svg width="56" height="56" viewBox="0 0 56 56" fill="none" xmlns="http://www.w3.org/2000/svg">
<rect width="56" height="56" rx="16" fill="white" fill-opacity="0.2"/>
<path d="M18.5299 30.7696C18.3173 32.1636 19.268 33.1312 20.4321 33.6134C24.8948 35.4622 31.1052 35.4622 35.5679 33.6134C36.732 33.1312 37.6827 32.1636 37.4701 30.7696C37.3394 29.9129 36.6932 29.1995 36.2144 28.5029C35.5873 27.5793 35.525 26.5718 35.5249 25.5C35.5249 21.3579 32.1559 18 28 18C23.8441 18 20.4751 21.3579 20.4751 25.5C20.475 26.5718 20.4127 27.5793 19.7856 28.5029C19.3068 29.1995 18.6606 29.9129 18.5299 30.7696Z" stroke="white" stroke-width="1.5" stroke-linecap="round" stroke-linejoin="round"/>
<path d="M24 35C24.4585 36.7252 26.0755 38 28 38C29.9245 38 31.5415 36.7252 32 35" stroke="white" stroke-width="1.5" stroke-linecap="round" stroke-linejoin="round"/>
<circle cx="34.5" cy="22.5" r="2.5" fill="#FF3D3D"/>
</svg>
