<svg width="24" height="24" viewBox="0 0 24 24" fill="none" xmlns="http://www.w3.org/2000/svg">
<path d="M22 3V21" stroke="#36B4AE" stroke-width="1.5" stroke-linecap="round" stroke-linejoin="round"/>
<path d="M2 3V21" stroke="#36B4AE" stroke-width="1.5" stroke-linecap="round" stroke-linejoin="round"/>
<path d="M15.9572 8.90544C15.6288 8.65295 15.1579 8.71447 14.9054 9.04284C14.653 9.37121 14.7145 9.84208 15.0428 10.0946L15.5 9.5L15.9572 8.90544ZM15.0428 13.9059C14.7145 14.1583 14.653 14.6292 14.9054 14.9576C15.1579 15.2859 15.6288 15.3475 15.9572 15.095L15.5 14.5004L15.0428 13.9059ZM8.03837 15.0911C8.36482 15.346 8.83614 15.2881 9.0911 14.9616C9.34605 14.6352 9.28809 14.1639 8.96163 13.9089L8.5 14.5L8.03837 15.0911ZM8.95716 10.0946C9.28553 9.84208 9.34705 9.37121 9.09456 9.04284C8.84208 8.71447 8.37121 8.65295 8.04284 8.90544L8.5 9.5L8.95716 10.0946ZM6 12.0004V12.7504H18V12.0004V11.2504H6V12.0004ZM15.5 9.5L15.0428 10.0946C15.4813 10.4317 16.0775 10.8797 16.569 11.321C16.8154 11.5421 17.0117 11.7408 17.1408 11.9042C17.2051 11.9856 17.2396 12.042 17.2555 12.0741C17.274 12.1114 17.25 12.0808 17.25 12.0004H18H18.75C18.75 11.7644 18.6745 11.5594 18.5997 11.4083C18.5222 11.2518 18.4214 11.1055 18.318 10.9745C18.1116 10.7133 17.843 10.4489 17.571 10.2047C17.026 9.71545 16.3721 9.22447 15.9572 8.90544L15.5 9.5ZM18 12.0004H17.25C17.25 11.9201 17.274 11.8894 17.2555 11.9267C17.2396 11.9588 17.2051 12.0151 17.1409 12.0965C17.0118 12.2599 16.8154 12.4585 16.5691 12.6796C16.0775 13.1208 15.4814 13.5686 15.0428 13.9059L15.5 14.5004L15.9572 15.095C16.372 14.776 17.0259 14.2851 17.571 13.796C17.8429 13.5519 18.1116 13.2875 18.3179 13.0263C18.4214 12.8954 18.5221 12.749 18.5996 12.5926C18.6745 12.4414 18.75 12.2364 18.75 12.0004H18ZM6 12.0004H5.25C5.25 12.2372 5.32856 12.4409 5.40189 12.586C5.47864 12.7377 5.578 12.8802 5.67946 13.0077C5.88207 13.2624 6.14636 13.5235 6.41555 13.7671C6.95537 14.2554 7.60723 14.7544 8.03837 15.0911L8.5 14.5L8.96163 13.9089C8.50932 13.5557 7.91118 13.0974 7.42186 12.6547C7.17649 12.4327 6.98142 12.2349 6.85332 12.0739C6.78943 11.9936 6.75559 11.939 6.74049 11.9091C6.72196 11.8724 6.75 11.9099 6.75 12.0004H6ZM8.5 9.5L8.04284 8.90544C7.62791 9.22447 6.97403 9.71545 6.42897 10.2047C6.15699 10.4489 5.88837 10.7133 5.68205 10.9745C5.57861 11.1055 5.47784 11.2518 5.40034 11.4083C5.32549 11.5594 5.25 11.7644 5.25 12.0004H6H6.75C6.75 12.0808 6.72597 12.1114 6.74449 12.0741C6.76038 12.042 6.79492 11.9856 6.85918 11.9042C6.98826 11.7408 7.18462 11.5421 7.43096 11.321C7.92255 10.8797 8.51867 10.4317 8.95716 10.0946L8.5 9.5Z" fill="#36B4AE"/>
</svg>
