<svg width="32" height="32" viewBox="0 0 32 32" fill="none" xmlns="http://www.w3.org/2000/svg">
<path d="M3.69329 13.3332C3.11996 13.3332 2.66663 12.8798 2.66663 12.3065V9.2265C2.66663 5.61317 5.61329 2.6665 9.22663 2.6665H12.3066C12.88 2.6665 13.3333 3.11984 13.3333 3.69317C13.3333 4.2665 12.88 4.71984 12.3066 4.71984H9.22663C6.73329 4.71984 4.71996 6.7465 4.71996 9.2265V12.3065C4.71996 12.8798 4.25329 13.3332 3.69329 13.3332Z" fill="white"/>
<path d="M28.3066 13.3332C27.7466 13.3332 27.28 12.8798 27.28 12.3065V9.2265C27.28 6.73317 25.2533 4.71984 22.7733 4.71984H19.6933C19.12 4.71984 18.6666 4.25317 18.6666 3.69317C18.6666 3.13317 19.12 2.6665 19.6933 2.6665H22.7733C26.3866 2.6665 29.3333 5.61317 29.3333 9.2265V12.3065C29.3333 12.8798 28.88 13.3332 28.3066 13.3332Z" fill="white"/>
<path d="M22.7733 29.3334H20.92C20.36 29.3334 19.8933 28.8801 19.8933 28.3067C19.8933 27.7467 20.3466 27.2801 20.92 27.2801H22.7733C25.2666 27.2801 27.28 25.2534 27.28 22.7734V20.9334C27.28 20.3734 27.7333 19.9067 28.3066 19.9067C28.8666 19.9067 29.3333 20.3601 29.3333 20.9334V22.7734C29.3333 26.3867 26.3866 29.3334 22.7733 29.3334Z" fill="white"/>
<path d="M12.3066 29.3332H9.22663C5.61329 29.3332 2.66663 26.3865 2.66663 22.7732V19.6932C2.66663 19.1198 3.11996 18.6665 3.69329 18.6665C4.26663 18.6665 4.71996 19.1198 4.71996 19.6932V22.7732C4.71996 25.2665 6.74663 27.2798 9.22663 27.2798H12.3066C12.8666 27.2798 13.3333 27.7332 13.3333 28.3065C13.3333 28.8798 12.88 29.3332 12.3066 29.3332Z" fill="white"/>
<path d="M24.6133 14.9731H22.8H9.19999H7.38665C6.81332 14.9731 6.35999 15.4398 6.35999 15.9998C6.35999 16.5598 6.81332 17.0265 7.38665 17.0265H9.19999H22.8H24.6133C25.1867 17.0265 25.64 16.5598 25.64 15.9998C25.64 15.4398 25.1867 14.9731 24.6133 14.9731Z" fill="white"/>
<path d="M9.19995 18.5866V19.0266C9.19995 21.24 10.9866 23.0266 13.2 23.0266H18.8C21.0133 23.0266 22.8 21.24 22.8 19.0266V18.5866C22.8 18.4266 22.68 18.3066 22.52 18.3066H9.47995C9.31995 18.3066 9.19995 18.4266 9.19995 18.5866Z" fill="white"/>
<path d="M9.19995 13.4131V12.9731C9.19995 10.7598 10.9866 8.97314 13.2 8.97314H18.8C21.0133 8.97314 22.8 10.7598 22.8 12.9731V13.4131C22.8 13.5731 22.68 13.6931 22.52 13.6931H9.47995C9.31995 13.6931 9.19995 13.5731 9.19995 13.4131Z" fill="white"/>
</svg>
