<svg width="18" height="18" viewBox="0 0 18 18" fill="none" xmlns="http://www.w3.org/2000/svg">
<g clip-path="url(#clip0_693_5181)">
<path d="M9.75 1.53703C9.50332 1.51254 9.25312 1.5 9 1.5C4.85786 1.5 1.5 4.85786 1.5 9C1.5 13.1421 4.85786 16.5 9 16.5C13.1421 16.5 16.5 13.1421 16.5 9C16.5 8.4863 16.4484 7.98466 16.35 7.5" stroke="#0A0A0A" stroke-width="1.5" stroke-linecap="round" stroke-linejoin="round"/>
<path d="M7.5 8.25H6.53033C6.19077 8.25 5.86511 8.11511 5.625 7.875M10.5 8.25H11.4697C11.8092 8.25 12.1349 8.11511 12.375 7.875" stroke="#0A0A0A" stroke-width="1.5" stroke-linecap="round" stroke-linejoin="round"/>
<circle cx="9" cy="12" r="1.5" stroke="#0A0A0A" stroke-width="1.5" stroke-linecap="round" stroke-linejoin="round"/>
<path d="M12.75 1.5H14.9605C15.4256 1.5 15.6581 1.5 15.7201 1.65007C15.782 1.80014 15.6238 1.98017 15.3073 2.34023L13.4885 4.40978C13.172 4.76983 13.0138 4.94986 13.0757 5.09993C13.1377 5.25 13.3702 5.25 13.8352 5.25H15.75" stroke="#0A0A0A" stroke-width="1.5" stroke-linecap="round" stroke-linejoin="round"/>
</g>
<defs>
<clipPath id="clip0_693_5181">
<rect width="18" height="18" fill="white"/>
</clipPath>
</defs>
</svg>
