<svg width="32" height="32" viewBox="0 0 32 32" fill="none" xmlns="http://www.w3.org/2000/svg">
<path d="M22.6667 15.9999C22.6667 19.6818 19.6819 22.6666 16 22.6666C12.3181 22.6666 9.33337 19.6818 9.33337 15.9999C9.33337 12.318 12.3181 9.33325 16 9.33325" stroke="white" stroke-width="1.5" stroke-linecap="round"/>
<path d="M18.6666 2.93322C17.805 2.75832 16.9132 2.6665 16 2.6665C8.63616 2.6665 2.66663 8.63604 2.66663 15.9998C2.66663 23.3636 8.63616 29.3332 16 29.3332C23.3638 29.3332 29.3333 23.3636 29.3333 15.9998C29.3333 15.0866 29.2415 14.1948 29.0666 13.3332" stroke="white" stroke-width="1.5" stroke-linecap="round"/>
<path d="M15.4697 15.4695C15.1768 15.7624 15.1768 16.2373 15.4697 16.5302C15.7626 16.8231 16.2374 16.8231 16.5303 16.5302L16 15.9998L15.4697 15.4695ZM26.2545 5.74533L25.5288 5.93467C25.5973 6.19735 25.8025 6.40249 26.0652 6.47103L26.2545 5.74533ZM25.566 3.1066L24.8403 3.29594V3.29594L25.566 3.1066ZM24.3974 2.91992L24.9277 3.45025V3.45025L24.3974 2.91992ZM22.8649 4.45243L22.3345 3.9221V3.9221L22.8649 4.45243ZM21.7042 8.20156L20.9785 8.3909L21.7042 8.20156ZM28.8932 6.43381L28.7039 7.15951L28.8932 6.43381ZM29.0799 7.60245L28.5496 7.07212L29.0799 7.60245ZM27.5474 9.13496L28.0777 9.66529L27.5474 9.13496ZM23.7983 10.2957L23.6089 11.0214L23.7983 10.2957ZM22.1375 9.86233L21.6072 9.332L15.4697 15.4695L16 15.9998L16.5303 16.5302L22.6678 10.3927L22.1375 9.86233ZM26.2545 5.74533L26.9802 5.55598L26.2917 2.91725L25.566 3.1066L24.8403 3.29594L25.5288 5.93467L26.2545 5.74533ZM24.3974 2.91992L23.8671 2.38959L22.3345 3.9221L22.8649 4.45243L23.3952 4.98276L24.9277 3.45025L24.3974 2.91992ZM21.7042 8.20156L20.9785 8.3909L21.4118 10.0517L22.1375 9.86233L22.8632 9.67298L22.4299 8.01221L21.7042 8.20156ZM26.2545 5.74533L26.0652 6.47103L28.7039 7.15951L28.8932 6.43381L29.0826 5.7081L26.4439 5.01962L26.2545 5.74533ZM29.0799 7.60245L28.5496 7.07212L27.0171 8.60463L27.5474 9.13496L28.0777 9.66529L29.6102 8.13278L29.0799 7.60245ZM23.7983 10.2957L23.9876 9.56995L22.3269 9.13663L22.1375 9.86233L21.9482 10.588L23.6089 11.0214L23.7983 10.2957ZM27.5474 9.13496L27.0171 8.60463C26.1362 9.48553 24.9502 9.82109 23.9876 9.56995L23.7983 10.2957L23.6089 11.0214C25.1626 11.4267 26.8794 10.8636 28.0777 9.66529L27.5474 9.13496ZM28.8932 6.43381L28.7039 7.15951C28.6835 7.1542 28.6499 7.13749 28.6213 7.10448C28.5949 7.07404 28.5864 7.04567 28.5842 7.03173C28.5799 7.0048 28.5943 7.0274 28.5496 7.07212L29.0799 7.60245L29.6102 8.13278C29.9736 7.76944 30.1416 7.27214 30.0654 6.79512C29.9869 6.30386 29.6437 5.85451 29.0826 5.7081L28.8932 6.43381ZM22.8649 4.45243L22.3345 3.9221C21.1362 5.12041 20.5731 6.83725 20.9785 8.3909L21.7042 8.20156L22.4299 8.01221C22.1787 7.04965 22.5143 5.86365 23.3952 4.98276L22.8649 4.45243ZM25.566 3.1066L26.2917 2.91725C26.1453 2.35613 25.696 2.01291 25.2047 1.93443C24.7277 1.85823 24.2304 2.02624 23.8671 2.38959L24.3974 2.91992L24.9277 3.45025C24.9724 3.40552 24.995 3.41996 24.9681 3.41565C24.9542 3.41343 24.9258 3.40493 24.8954 3.37856C24.8623 3.34996 24.8456 3.31631 24.8403 3.29594L25.566 3.1066Z" fill="white"/>
</svg>
